<svg width="134" height="29" viewBox="0 0 134 29" fill="none" xmlns="http://www.w3.org/2000/svg">
<g opacity="0.6">
<path d="M38.1577 8.90078H41.5447V21.2229H38.1577V8.90078ZM42.8952 16.5879C42.8952 13.5358 45.0054 11.7064 48.1708 11.7064C51.3361 11.7064 53.4463 13.5358 53.4463 16.5879C53.4463 19.6399 51.41 21.4883 48.1708 21.4883C44.9316 21.4883 42.8952 19.7063 42.8952 16.5879ZM50.0911 16.5879C50.0911 14.9102 49.363 13.9244 48.2024 13.9244C47.0418 13.9244 46.3243 14.8722 46.3243 16.5879C46.3243 18.3035 47.0418 19.2418 48.2024 19.2418C49.363 19.2418 50.1122 18.3035 50.1122 16.5973L50.0911 16.5879ZM54.7969 21.8579H58.0677C58.2166 22.1743 58.4767 22.4382 58.8082 22.6093C59.1397 22.7804 59.5244 22.8494 59.9036 22.8058C61.2014 22.8058 61.8767 22.1802 61.8767 21.2513V19.5452H61.8873C61.6078 20.0764 61.1558 20.5192 60.5908 20.8153C60.0258 21.1114 59.3743 21.2468 58.7219 21.2039C56.2424 21.2039 54.5964 19.5072 54.5964 16.5879C54.5964 13.6685 56.1685 11.8486 58.8169 11.8486C59.4859 11.8164 60.1496 11.9715 60.7165 12.2923C61.2834 12.6131 61.7256 13.084 61.9822 13.64H61.8873V11.9244H65.2425V21.1565C65.2425 23.384 63.0479 24.7773 59.8192 24.7773C56.886 24.7678 55.0079 23.564 54.818 21.8674L54.7969 21.8579ZM61.8873 16.5879C61.8873 15.0997 61.1276 14.1614 59.9247 14.1614C58.7219 14.1614 57.9833 15.1092 57.9833 16.5879C57.9833 18.0665 58.7114 18.9385 59.9247 18.9385C61.1381 18.9385 61.8873 18.1329 61.8873 16.5879ZM66.5825 16.5879C66.5825 13.5358 68.6927 11.7064 71.8581 11.7064C75.0234 11.7064 77.1336 13.5358 77.1336 16.5879C77.1336 19.6399 75.0867 21.4883 71.8581 21.4883C68.6294 21.4883 66.6036 19.7063 66.6036 16.5879H66.5825ZM73.7784 16.5879C73.7784 14.9102 73.0398 13.9244 71.8897 13.9244C70.7397 13.9244 70.0116 14.8722 70.0116 16.5879C70.0116 18.3035 70.7291 19.2418 71.8897 19.2418C73.0504 19.2418 73.7995 18.3035 73.7995 16.5973L73.7784 16.5879ZM78.5053 9.67802C78.4906 9.36809 78.5794 9.06129 78.7603 8.79708C78.9413 8.53287 79.2061 8.32334 79.5207 8.19545C79.8353 8.06756 80.1853 8.02715 80.5257 8.07943C80.8661 8.1317 81.1813 8.27427 81.4307 8.48879C81.6802 8.70331 81.8524 8.97997 81.9254 9.28318C81.9984 9.58638 81.9687 9.90227 81.8402 10.1902C81.7117 10.4781 81.4902 10.7249 81.2043 10.8989C80.9183 11.0728 80.581 11.1659 80.2357 11.1662C80.015 11.1712 79.7954 11.1368 79.5896 11.065C79.3839 10.9932 79.196 10.8853 79.037 10.7478C78.878 10.6102 78.751 10.4457 78.6633 10.2637C78.5757 10.0816 78.5291 9.8858 78.5264 9.6875L78.5053 9.67802ZM78.5053 11.915H81.9344V21.2608H78.5581L78.5053 11.915ZM94.2687 16.5879C94.2687 19.6305 92.7493 21.3935 90.1643 21.3935C89.5025 21.4301 88.8441 21.2835 88.2781 20.9733C87.712 20.6631 87.2655 20.2043 86.999 19.6589H86.9357V24.2655H83.5487V11.9434H86.9146V13.6116H86.9779C87.2353 13.0555 87.6774 12.5842 88.2438 12.2619C88.8102 11.9396 89.4735 11.7821 90.1432 11.8107C92.8021 11.7917 94.332 13.5453 94.332 16.5973L94.2687 16.5879ZM90.8185 16.5879C90.8185 15.1092 90.0482 14.1519 88.856 14.1519C87.6637 14.1519 86.9146 15.0997 86.904 16.5879C86.8935 18.076 87.6637 19.0144 88.856 19.0144C90.0482 19.0144 90.8818 18.1329 90.8818 16.5973L90.8185 16.5879ZM100.051 11.6969C102.889 11.6969 104.651 12.9007 104.672 14.8343H101.581C101.581 14.1614 100.958 13.7443 100.03 13.7443C99.1011 13.7443 98.658 14.0666 98.658 14.55C98.658 15.0334 99.0484 15.185 99.8292 15.3272L102.003 15.7253C104.113 16.1234 104.957 16.8817 104.957 18.294C104.957 20.1897 103.005 21.4788 100.103 21.4788C97.2019 21.4788 95.3133 20.2276 95.1761 18.3224H98.4575C98.5525 19.0144 99.1644 19.4219 100.156 19.4219C101.148 19.4219 101.612 19.1376 101.612 18.6352C101.612 18.1329 101.296 18.0476 100.483 17.8959L98.5208 17.5262C96.4844 17.1376 95.4188 16.1803 95.4188 14.749C95.4821 12.8912 97.2547 11.7064 100.114 11.7064L100.051 11.6969ZM116.299 21.2513H113.018V19.4978H112.955C112.771 20.0826 112.371 20.5938 111.821 20.9471C111.27 21.3003 110.602 21.4745 109.927 21.4409C109.417 21.4558 108.909 21.3736 108.437 21.1999C107.965 21.0261 107.539 20.7646 107.187 20.4325C106.835 20.1004 106.566 19.7053 106.396 19.273C106.226 18.8408 106.16 18.3812 106.202 17.9243V11.9244H109.589V17.2703C109.589 18.3698 110.233 18.967 111.288 18.967C111.535 18.9653 111.779 18.9159 112.004 18.8222C112.228 18.7285 112.428 18.5926 112.589 18.4237C112.75 18.2547 112.869 18.0568 112.937 17.8431C113.006 17.6294 113.023 17.405 112.986 17.185V11.9244H116.363L116.299 21.2513ZM117.935 11.915H121.227V13.7159H121.301C121.483 13.139 121.872 12.6325 122.409 12.2758C122.945 11.919 123.598 11.7321 124.266 11.7443C124.936 11.692 125.603 11.8661 126.138 12.2324C126.672 12.5988 127.036 13.1311 127.157 13.7253H127.304C127.515 13.1279 127.94 12.6099 128.512 12.2516C129.085 11.8934 129.773 11.715 130.47 11.7443C130.933 11.7285 131.395 11.8007 131.824 11.9562C132.254 12.1118 132.643 12.3471 132.965 12.6469C133.286 12.9466 133.534 13.304 133.691 13.6957C133.849 14.0873 133.912 14.5044 133.878 14.9196V21.2608H130.47V15.6969C130.47 14.749 129.974 14.2182 129.014 14.2182C128.801 14.2151 128.589 14.2534 128.395 14.3304C128.2 14.4075 128.025 14.5215 127.884 14.6646C127.743 14.8078 127.638 14.9767 127.576 15.1597C127.514 15.3428 127.497 15.5358 127.526 15.7253V21.2608H124.297V15.6684C124.297 14.7206 123.78 14.2182 122.852 14.2182C122.637 14.2167 122.423 14.2565 122.227 14.3351C122.03 14.4136 121.855 14.529 121.712 14.6735C121.569 14.818 121.462 14.9884 121.398 15.1731C121.335 15.3577 121.316 15.5525 121.343 15.7443V21.2608H117.956L117.935 11.915Z" fill="#1D2130"/>
<path d="M31.4577 9.70654C31.4578 7.82003 30.8236 5.97746 29.6383 4.4202C28.4529 2.86293 26.7717 1.66357 24.8147 0.979217C22.8578 0.294863 20.7164 0.157423 18.671 0.584896C16.6256 1.01237 14.7716 1.98483 13.3519 3.37489H0.184082V28.3413H27.9863V16.6733C29.0776 15.7965 29.9507 14.7228 30.5489 13.5224C31.147 12.322 31.4567 11.0217 31.4577 9.70654ZM26.1082 9.70654C26.1103 10.6105 25.8138 11.4948 25.2563 12.2473C24.6987 12.9999 23.9052 13.5869 22.9761 13.9342C22.047 14.2814 21.0241 14.3732 20.0369 14.198C19.0497 14.0228 18.1425 13.5885 17.4302 12.9499C16.7179 12.3113 16.2325 11.4973 16.0354 10.6108C15.8383 9.72432 15.9384 8.80524 16.3231 7.96987C16.7077 7.13451 17.3595 6.42042 18.1961 5.91799C19.0326 5.41556 20.0163 5.14738 21.0226 5.14737C22.3696 5.14737 23.6615 5.62741 24.615 6.48215C25.5684 7.33688 26.1054 8.49651 26.1082 9.70654ZM22.6369 23.5357H5.53351V8.1805H10.7458C10.6451 8.68425 10.5921 9.19476 10.5875 9.70654C10.5903 12.192 11.6906 14.5749 13.647 16.3324C15.6033 18.0898 18.2559 19.0783 21.0226 19.0808C21.5635 19.0782 22.1033 19.037 22.6369 18.9576V23.5357Z" fill="#1D2130"/>
</g>
</svg>
