<svg width="137" height="29" viewBox="0 0 137 29" fill="none" xmlns="http://www.w3.org/2000/svg">
<g opacity="0.6">
<path d="M33.1768 6.94251H36.3421V20.7987H33.1768V6.94251Z" fill="#1D2130"/>
<path d="M38.1147 16.0521C38.1147 15.0552 38.4404 14.0807 39.0505 13.2522C39.6606 12.4237 40.5276 11.7785 41.5416 11.3984C42.5556 11.0182 43.671 10.9202 44.7464 11.1168C45.8218 11.3134 46.8087 11.7957 47.5822 12.5026C48.3556 13.2096 48.8806 14.1093 49.0908 15.0877C49.3009 16.0661 49.1867 17.0792 48.7626 17.9986C48.3385 18.918 47.6236 19.7022 46.7085 20.2519C45.7934 20.8016 44.7193 21.092 43.6224 21.0863C42.8948 21.0915 42.1735 20.9646 41.5006 20.7131C40.8278 20.4615 40.2169 20.0905 39.7039 19.6216C39.1909 19.1527 38.7861 18.5954 38.5132 17.9825C38.2403 17.3695 38.1048 16.7132 38.1147 16.0521ZM46.0491 16.0521C46.0367 15.6223 45.8851 15.2054 45.6133 14.8535C45.3415 14.5016 44.9616 14.2304 44.5211 14.0737C44.0805 13.917 43.599 13.8818 43.1366 13.9726C42.6742 14.0633 42.2514 14.2759 41.9213 14.5839C41.5912 14.8918 41.3683 15.2814 41.2805 15.7038C41.1927 16.1263 41.2438 16.5629 41.4276 16.959C41.6114 17.3552 41.9197 17.6933 42.3138 17.9311C42.7079 18.1689 43.1704 18.2958 43.6435 18.2959C43.9656 18.3016 44.2855 18.2469 44.5832 18.1351C44.881 18.0234 45.1502 17.857 45.374 17.6464C45.5978 17.4358 45.7714 17.1856 45.8839 16.9112C45.9964 16.6369 46.0455 16.3444 46.028 16.0521H46.0491Z" fill="#1D2130"/>
<path d="M61.6543 11.3055V20.3288C61.6543 23.5124 58.911 24.8644 56.1361 24.8644C55.1573 24.9374 54.1755 24.7607 53.3012 24.3541C52.427 23.9475 51.695 23.3272 51.1876 22.563L53.857 21.163C54.0733 21.5594 54.4174 21.8865 54.8434 22.1006C55.2695 22.3147 55.7572 22.4058 56.2416 22.3617C56.5502 22.3962 56.8633 22.3684 57.1587 22.2801C57.4541 22.1919 57.7243 22.0454 57.9502 21.8512C58.176 21.6569 58.3518 21.4197 58.465 21.1566C58.5782 20.8934 58.626 20.6107 58.605 20.3288V19.4562C58.2367 19.8621 57.7693 20.1843 57.24 20.3974C56.7107 20.6105 56.134 20.7084 55.5558 20.6836C54.1566 20.6836 52.8147 20.1785 51.8254 19.2793C50.836 18.3802 50.2802 17.1607 50.2802 15.8891C50.2802 14.6175 50.836 13.398 51.8254 12.4988C52.8147 11.5997 54.1566 11.0946 55.5558 11.0946C56.134 11.0697 56.7107 11.1677 57.24 11.3808C57.7693 11.5938 58.2367 11.9161 58.605 12.322V11.363L61.6543 11.3055ZM58.605 15.8603C58.6261 15.4015 58.4956 14.9475 58.2305 14.5567C57.9654 14.1658 57.5776 13.856 57.1172 13.667C56.6567 13.478 56.1446 13.4185 55.6466 13.4962C55.1486 13.5739 54.6876 13.7852 54.3229 14.1029C53.9581 14.4206 53.7062 14.8302 53.5997 15.279C53.4931 15.7278 53.5367 16.1954 53.7249 16.6215C53.913 17.0477 54.2371 17.4129 54.6556 17.6703C55.074 17.9276 55.5675 18.0654 56.0728 18.0658C56.4024 18.0874 56.7334 18.0459 57.0444 17.944C57.3553 17.8421 57.6392 17.682 57.8779 17.4742C58.1165 17.2663 58.3045 17.0153 58.4298 16.7373C58.555 16.4593 58.6147 16.1606 58.605 15.8603Z" fill="#1D2130"/>
<path d="M63.4374 16.0521C63.4374 15.056 63.7626 14.0823 64.3717 13.2542C64.9808 12.4261 65.8466 11.7809 66.8594 11.4001C67.8722 11.0194 68.9865 10.9203 70.0613 11.1153C71.1361 11.3103 72.1231 11.7907 72.8974 12.4957C73.6717 13.2008 74.1984 14.0987 74.4109 15.0758C74.6235 16.053 74.5123 17.0655 74.0914 17.9853C73.6705 18.905 72.9589 19.6906 72.0466 20.2426C71.1342 20.7946 70.0622 21.0882 68.9662 21.0863C68.2373 21.0928 67.5143 20.9669 66.8396 20.716C66.165 20.4652 65.5522 20.0945 65.0372 19.6256C64.5223 19.1567 64.1155 18.5991 63.8408 17.9854C63.5661 17.3718 63.429 16.7145 63.4374 16.0521ZM71.3719 16.0521C71.3594 15.6219 71.2075 15.2046 70.9353 14.8525C70.663 14.5005 70.2825 14.2292 69.8413 14.0728C69.4002 13.9164 68.9181 13.8818 68.4554 13.9734C67.9927 14.0649 67.5701 14.2785 67.2404 14.5873C66.9107 14.8962 66.6886 15.2867 66.602 15.7097C66.5154 16.1328 66.5681 16.5697 66.7535 16.9657C66.9389 17.3617 67.2487 17.6991 67.6442 17.9357C68.0397 18.1724 68.5032 18.2977 68.9768 18.2959C69.2988 18.3016 69.6188 18.2469 69.9165 18.1351C70.2143 18.0234 70.4835 17.857 70.7073 17.6464C70.9311 17.4358 71.1046 17.1856 71.2172 16.9112C71.3297 16.6369 71.3788 16.3444 71.3613 16.0521H71.3719Z" fill="#1D2130"/>
<path d="M75.9617 8.76438C75.9617 8.42679 76.0718 8.09679 76.2782 7.8161C76.4846 7.53541 76.7779 7.31664 77.1211 7.18745C77.4642 7.05826 77.8419 7.02446 78.2062 7.09032C78.5705 7.15618 78.9051 7.31874 79.1678 7.55745C79.4304 7.79616 79.6093 8.10029 79.6818 8.43138C79.7542 8.76248 79.7171 9.10567 79.5749 9.41756C79.4328 9.72944 79.192 9.99602 78.8832 10.1836C78.5743 10.3711 78.2112 10.4712 77.8398 10.4712C77.3434 10.4662 76.8688 10.2848 76.5178 9.96579C76.1668 9.64676 75.9672 9.21551 75.9617 8.76438ZM76.2677 11.3055H79.433V20.7986H76.2677V11.3055Z" fill="#1D2130"/>
<path d="M92.9806 16.0521C93.0161 16.6835 92.9138 17.315 92.6797 17.9102C92.4456 18.5055 92.0843 19.0529 91.6165 19.5208C91.1487 19.9887 90.5838 20.3679 89.9541 20.6366C89.3245 20.9052 88.6426 21.0581 87.9477 21.0864C87.358 21.122 86.7671 21.0362 86.219 20.8353C85.6709 20.6344 85.1798 20.3236 84.7824 19.9261V24.6151H81.617V11.3055H84.7824V12.1973C85.1803 11.801 85.6718 11.4916 86.22 11.2924C86.7681 11.0931 87.3588 11.0091 87.9477 11.0466C88.6398 11.075 89.319 11.2269 89.9465 11.4938C90.574 11.7607 91.1375 12.1373 91.6049 12.6021C92.0722 13.0669 92.4342 13.6108 92.6703 14.2027C92.9063 14.7947 93.0118 15.4231 92.9806 16.0521ZM89.8153 16.0521C89.8028 15.6068 89.646 15.1746 89.3644 14.8099C89.0829 14.4452 88.6892 14.1642 88.2326 14.002C87.776 13.8398 87.2769 13.8037 86.7979 13.8981C86.3188 13.9926 85.8811 14.2135 85.5396 14.5331C85.1981 14.8527 84.968 15.2569 84.8781 15.6948C84.7883 16.1328 84.8426 16.5851 85.0344 16.9951C85.2262 17.4051 85.5469 17.7545 85.9563 17.9996C86.3657 18.2446 86.8455 18.3744 87.3357 18.3727C87.6715 18.3856 88.0065 18.3339 88.3187 18.221C88.631 18.108 88.9134 17.9363 89.1475 17.7172C89.3817 17.4981 89.5622 17.2365 89.6773 16.9495C89.7923 16.6626 89.8394 16.3568 89.8153 16.0521Z" fill="#1D2130"/>
<path d="M102.614 17.9507C102.614 20.137 100.504 21.0671 98.2667 21.0671C97.3544 21.1418 96.4384 20.966 95.6371 20.5626C94.8359 20.1592 94.1861 19.5466 93.7719 18.8041L96.4941 17.4041C96.602 17.7463 96.8358 18.0444 97.1566 18.2486C97.4773 18.4529 97.8655 18.5508 98.2562 18.5261C99.0053 18.5261 99.3851 18.3151 99.3851 17.9315C99.3851 16.8863 94.2467 17.4425 94.2467 14.1534C94.2467 12.0822 96.167 11.0466 98.3406 11.0466C99.1668 11.013 99.9876 11.1833 100.716 11.5396C101.444 11.8958 102.053 12.4246 102.477 13.0699L99.7544 14.374C99.6342 14.1266 99.4377 13.9162 99.1886 13.7681C98.9396 13.6201 98.6487 13.5408 98.3511 13.5397C97.8025 13.5397 97.4754 13.7315 97.4754 14.0671C97.4754 15.1603 102.614 14.4411 102.614 17.9507Z" fill="#1D2130"/>
<path d="M114.083 11.3056V20.7987H110.917V19.9069C110.558 20.3017 110.101 20.6141 109.584 20.8189C109.068 21.0238 108.505 21.1154 107.942 21.0864C105.832 21.0864 104.028 19.7151 104.028 17.1549V11.3056H107.193V16.7234C107.168 16.9499 107.198 17.1786 107.279 17.3937C107.361 17.6088 107.494 17.8052 107.667 17.9693C107.841 18.1335 108.051 18.2614 108.285 18.3443C108.518 18.4271 108.768 18.463 109.018 18.4494C110.158 18.4494 110.96 17.8357 110.96 16.5316V11.3056H114.083Z" fill="#1D2130"/>
<path d="M132.02 14.9685V20.7987H128.854V15.2178C128.854 14.2589 128.358 13.6644 127.356 13.6644C126.354 13.6644 125.721 14.326 125.721 15.448V20.7987H122.555V15.2178C122.555 14.2589 122.059 13.6644 121.057 13.6644C120.055 13.6644 119.422 14.326 119.422 15.448V20.7987H116.256V11.3055H119.422V12.1781C119.749 11.7926 120.178 11.4873 120.668 11.2897C121.157 11.0922 121.694 11.0086 122.228 11.0466C122.764 11.0212 123.297 11.1228 123.776 11.3413C124.255 11.5599 124.664 11.8879 124.961 12.2932C125.309 11.8698 125.769 11.5333 126.298 11.3153C126.828 11.0973 127.41 11.0049 127.989 11.0466C130.458 11.0466 132.02 12.6 132.02 14.9685Z" fill="#1D2130"/>
<path d="M14.3219 4.44937V0.374023H0.18335V28.374H14.3219V24.2987C11.4256 24.2987 8.64794 23.253 6.59997 21.3918C4.55199 19.5306 3.40145 17.0062 3.40145 14.374C3.40145 11.7418 4.55199 9.21747 6.59997 7.35623C8.64794 5.495 11.4256 4.44937 14.3219 4.44937Z" fill="#1D2130"/>
<path d="M14.3219 4.44937V24.2987C17.2182 24.2987 19.9957 23.2531 22.0437 21.3918C24.0917 19.5306 25.2422 17.0062 25.2422 14.374C25.2422 11.7418 24.0917 9.21747 22.0437 7.35623C19.9957 5.495 17.2182 4.44937 14.3219 4.44937Z" fill="#1D2130"/>
<path d="M134.679 11.248C135.961 11.248 137 10.3035 137 9.13838C137 7.97329 135.961 7.02879 134.679 7.02879C133.397 7.02879 132.357 7.97329 132.357 9.13838C132.357 10.3035 133.397 11.248 134.679 11.248Z" fill="#1D2130"/>
</g>
</svg>
