<svg width="123" height="28" viewBox="0 0 123 28" fill="none" xmlns="http://www.w3.org/2000/svg">
<g opacity="0.6">
<path d="M29.6615 6.56849H32.5072V20.4247H29.6615V6.56849Z" fill="#1D2130"/>
<path d="M34.1008 15.6781C34.1008 14.6812 34.3936 13.7067 34.9421 12.8782C35.4906 12.0497 36.27 11.4045 37.1816 11.0243C38.0933 10.6442 39.096 10.5462 40.0628 10.7427C41.0296 10.9393 41.9169 11.4217 42.6122 12.1286C43.3075 12.8355 43.7795 13.7352 43.9685 14.7137C44.1574 15.6921 44.0547 16.7052 43.6734 17.6246C43.2921 18.544 42.6494 19.3282 41.8267 19.8779C41.004 20.4276 40.0384 20.718 39.0523 20.7123C38.3982 20.7175 37.7497 20.5906 37.1448 20.3391C36.5399 20.0875 35.9907 19.7164 35.5295 19.2475C35.0684 18.7787 34.7044 18.2214 34.4591 17.6085C34.2138 16.9955 34.0919 16.3392 34.1008 15.6781ZM41.234 15.6781C41.2228 15.2483 41.0865 14.8314 40.8422 14.4795C40.5978 14.1276 40.2563 13.8564 39.8602 13.6997C39.4642 13.543 39.0312 13.5078 38.6155 13.5985C38.1998 13.6893 37.8198 13.9019 37.523 14.2099C37.2262 14.5178 37.0258 14.9073 36.9469 15.3298C36.8679 15.7522 36.914 16.1888 37.0792 16.585C37.2444 16.9812 37.5215 17.3193 37.8758 17.5571C38.2302 17.7948 38.646 17.9217 39.0713 17.9219C39.3608 17.9276 39.6484 17.8729 39.9161 17.7611C40.1838 17.6494 40.4258 17.483 40.627 17.2724C40.8282 17.0618 40.9843 16.8115 41.0854 16.5372C41.1866 16.2629 41.2307 15.9704 41.215 15.6781H41.234Z" fill="#1D2130"/>
<path d="M55.2632 10.9315V19.9548C55.2632 23.1383 52.797 24.4904 50.3023 24.4904C49.4223 24.5634 48.5397 24.3867 47.7537 23.9801C46.9677 23.5735 46.3097 22.9532 45.8535 22.189L48.2534 20.789C48.4478 21.1854 48.7572 21.5124 49.1402 21.7266C49.5232 21.9407 49.9616 22.0318 50.3971 21.9877C50.6745 22.0222 50.9561 21.9944 51.2216 21.9061C51.4872 21.8178 51.7301 21.6714 51.9332 21.4771C52.1362 21.2829 52.2942 21.0457 52.396 20.7825C52.4978 20.5194 52.5408 20.2367 52.5219 19.9548V19.0822C52.1907 19.4881 51.7706 19.8103 51.2947 20.0234C50.8188 20.2364 50.3004 20.3344 49.7805 20.3096C48.5227 20.3096 47.3163 19.8044 46.4269 18.9053C45.5374 18.0061 45.0377 16.7866 45.0377 15.5151C45.0377 14.2435 45.5374 13.024 46.4269 12.1248C47.3163 11.2257 48.5227 10.7205 49.7805 10.7205C50.3004 10.6957 50.8188 10.7937 51.2947 11.0067C51.7706 11.2198 52.1907 11.542 52.5219 11.9479V10.989L55.2632 10.9315ZM52.5219 15.4863C52.5408 15.0275 52.4236 14.5735 52.1852 14.1827C51.9468 13.7918 51.5982 13.482 51.1843 13.293C50.7703 13.104 50.3099 13.0445 49.8622 13.1222C49.4146 13.1999 49.0001 13.4111 48.6722 13.7288C48.3442 14.0465 48.1178 14.4561 48.022 14.905C47.9262 15.3538 47.9654 15.8214 48.1345 16.2475C48.3037 16.6736 48.5951 17.0389 48.9713 17.2962C49.3474 17.5536 49.7911 17.6914 50.2453 17.6918C50.5417 17.7133 50.8393 17.6719 51.1188 17.5699C51.3984 17.468 51.6536 17.308 51.8682 17.1002C52.0827 16.8923 52.2517 16.6413 52.3644 16.3633C52.477 16.0853 52.5306 15.7865 52.5219 15.4863Z" fill="#1D2130"/>
<path d="M56.8663 15.6781C56.8663 14.682 57.1586 13.7083 57.7062 12.8802C58.2538 12.0521 59.0321 11.4069 59.9427 11.0261C60.8532 10.6454 61.855 10.5462 62.8213 10.7413C63.7875 10.9363 64.6749 11.4167 65.3709 12.1217C66.067 12.8267 66.5405 13.7246 66.7316 14.7018C66.9227 15.679 66.8227 16.6915 66.4444 17.6112C66.066 18.531 65.4262 19.3165 64.606 19.8685C63.7858 20.4206 62.8221 20.7142 61.8367 20.7123C61.1814 20.7187 60.5315 20.5928 59.9249 20.342C59.3184 20.0912 58.7675 19.7204 58.3045 19.2515C57.8416 18.7827 57.4759 18.225 57.2289 17.6114C56.982 16.9978 56.8587 16.3405 56.8663 15.6781ZM63.9995 15.6781C63.9882 15.2479 63.8517 14.8306 63.6069 14.4785C63.3622 14.1264 63.0201 13.8552 62.6235 13.6988C62.2269 13.5424 61.7935 13.5078 61.3775 13.5993C60.9616 13.6909 60.5816 13.9044 60.2852 14.2133C59.9888 14.5222 59.7891 14.9126 59.7113 15.3357C59.6334 15.7588 59.6808 16.1957 59.8474 16.5917C60.0141 16.9876 60.2927 17.3251 60.6482 17.5617C61.0038 17.7983 61.4205 17.9236 61.8462 17.9219C62.1358 17.9276 62.4234 17.8729 62.6911 17.7611C62.9588 17.6494 63.2008 17.483 63.402 17.2724C63.6032 17.0618 63.7592 16.8115 63.8604 16.5372C63.9616 16.2629 64.0057 15.9704 63.99 15.6781H63.9995Z" fill="#1D2130"/>
<path d="M68.1258 8.39035C68.1258 8.05277 68.2248 7.72277 68.4103 7.44208C68.5958 7.16139 68.8595 6.94261 69.1681 6.81343C69.4766 6.68424 69.8161 6.65044 70.1436 6.7163C70.4711 6.78216 70.772 6.94472 71.0081 7.18343C71.2442 7.42213 71.405 7.72626 71.4702 8.05736C71.5353 8.38846 71.5019 8.73165 71.3741 9.04354C71.2463 9.35542 71.0299 9.62199 70.7522 9.80955C70.4746 9.9971 70.1481 10.0972 69.8142 10.0972C69.3679 10.0922 68.9413 9.91079 68.6257 9.59176C68.3101 9.27274 68.1307 8.84149 68.1258 8.39035ZM68.4008 10.9314H71.2465V20.4246H68.4008V10.9314Z" fill="#1D2130"/>
<path d="M83.426 15.6781C83.4579 16.3094 83.366 16.9409 83.1555 17.5362C82.945 18.1315 82.6202 18.6789 82.1997 19.1467C81.7791 19.6146 81.2712 19.9938 80.7052 20.2625C80.1391 20.5312 79.5261 20.6841 78.9014 20.7123C78.3712 20.748 77.84 20.6622 77.3472 20.4613C76.8545 20.2604 76.413 19.9496 76.0557 19.5521V24.2411H73.21V10.9315H76.0557V11.8233C76.4135 11.427 76.8553 11.1176 77.3481 10.9183C77.8409 10.7191 78.3719 10.6351 78.9014 10.6726C79.5236 10.7009 80.1342 10.8529 80.6983 11.1198C81.2624 11.3866 81.769 11.7632 82.1892 12.228C82.6093 12.6928 82.9348 13.2368 83.147 13.8287C83.3592 14.4207 83.454 15.0491 83.426 15.6781ZM80.5803 15.6781C80.5691 15.2327 80.4281 14.8006 80.175 14.4359C79.9219 14.0712 79.5679 13.7902 79.1575 13.628C78.747 13.4658 78.2983 13.4296 77.8676 13.5241C77.437 13.6186 77.0435 13.8395 76.7364 14.1591C76.4294 14.4787 76.2226 14.8828 76.1418 15.3208C76.061 15.7587 76.1099 16.2111 76.2823 16.6211C76.4547 17.0311 76.743 17.3805 77.1111 17.6255C77.4791 17.8706 77.9105 18.0004 78.3512 17.9986C78.6531 18.0116 78.9542 17.9599 79.2349 17.8469C79.5156 17.734 79.7695 17.5623 79.98 17.3432C80.1905 17.1241 80.3528 16.8625 80.4562 16.5755C80.5597 16.2886 80.602 15.9827 80.5803 15.6781Z" fill="#1D2130"/>
<path d="M92.0864 17.5767C92.0864 19.763 90.1892 20.6931 88.1783 20.6931C87.3581 20.7678 86.5346 20.592 85.8143 20.1886C85.0939 19.7852 84.5098 19.1726 84.1374 18.4301L86.5847 17.0301C86.6817 17.3723 86.8919 17.6704 87.1802 17.8746C87.4686 18.0788 87.8176 18.1768 88.1688 18.152C88.8423 18.152 89.1838 17.9411 89.1838 17.5575C89.1838 16.5123 84.5643 17.0685 84.5643 13.7794C84.5643 11.7082 86.2907 10.6726 88.2447 10.6726C88.9875 10.6389 89.7254 10.8093 90.38 11.1655C91.0347 11.5218 91.5818 12.0506 91.9631 12.6959L89.5158 14C89.4077 13.7526 89.231 13.5422 89.0071 13.3941C88.7832 13.2461 88.5217 13.1667 88.2542 13.1657C87.7609 13.1657 87.4669 13.3575 87.4669 13.6931C87.4669 14.7863 92.0864 14.0671 92.0864 17.5767Z" fill="#1D2130"/>
<path d="M102.397 10.9315V20.4247H99.5515V19.5329C99.2282 19.9276 98.8177 20.24 98.3531 20.4449C97.8884 20.6498 97.3827 20.7414 96.8765 20.7124C94.9794 20.7124 93.3574 19.3411 93.3574 16.7808V10.9315H96.2031V16.3493C96.1807 16.5758 96.2072 16.8046 96.2808 17.0197C96.3545 17.2348 96.4734 17.4312 96.6294 17.5953C96.7854 17.7594 96.9749 17.8873 97.1846 17.9702C97.3943 18.0531 97.6193 18.089 97.8441 18.0754C98.8685 18.0754 99.5894 17.4617 99.5894 16.1576V10.9315H102.397Z" fill="#1D2130"/>
<path d="M118.523 14.5945V20.4246H115.677V14.8438C115.677 13.8849 115.231 13.2904 114.33 13.2904C113.429 13.2904 112.86 13.952 112.86 15.0739V20.4246H110.014V14.8438C110.014 13.8849 109.568 13.2904 108.667 13.2904C107.766 13.2904 107.197 13.952 107.197 15.0739V20.4246H104.351V10.9315H107.197V11.8041C107.491 11.4186 107.876 11.1133 108.317 10.9157C108.757 10.7182 109.24 10.6346 109.72 10.6726C110.201 10.6472 110.681 10.7488 111.112 10.9673C111.542 11.1859 111.909 11.5139 112.177 11.9191C112.489 11.4957 112.903 11.1593 113.379 10.9413C113.855 10.7233 114.378 10.6309 114.899 10.6726C117.119 10.6726 118.523 12.226 118.523 14.5945Z" fill="#1D2130"/>
<path d="M12.7107 4.07534V0H0V28H12.7107V23.9247C10.1069 23.9247 7.60979 22.879 5.76863 21.0178C3.92747 19.1566 2.89311 16.6322 2.89311 14C2.89311 11.3678 3.92747 8.84344 5.76863 6.98221C7.60979 5.12097 10.1069 4.07534 12.7107 4.07534Z" fill="#1D2130"/>
<path d="M12.7107 4.07534V23.9247C15.3145 23.9247 17.8116 22.879 19.6528 21.0178C21.4939 19.1566 22.5283 16.6322 22.5283 14C22.5283 11.3678 21.4939 8.84345 19.6528 6.98221C17.8116 5.12098 15.3145 4.07534 12.7107 4.07534Z" fill="#1D2130"/>
<path d="M120.913 10.874C122.066 10.874 123 9.92945 123 8.76436C123 7.59927 122.066 6.65477 120.913 6.65477C119.761 6.65477 118.826 7.59927 118.826 8.76436C118.826 9.92945 119.761 10.874 120.913 10.874Z" fill="#1D2130"/>
</g>
</svg>
