<svg width="127" height="29" viewBox="0 0 127 29" fill="none" xmlns="http://www.w3.org/2000/svg">
<g opacity="0.6">
<path d="M37.0633 8.50018H40.2286V21.0232H37.0633V8.50018ZM41.4842 16.2948C41.4842 13.1976 43.4256 11.3496 46.4222 11.3496C49.4187 11.3496 51.3601 13.1976 51.3601 16.2948C51.3601 19.392 49.4609 21.2504 46.4222 21.2504C43.3834 21.2504 41.4842 19.4436 41.4842 16.2948ZM48.1842 16.2948C48.1842 14.5914 47.4984 13.5899 46.4222 13.5899C45.3459 13.5899 44.6707 14.6223 44.6707 16.2948C44.6707 17.9673 45.3354 18.9791 46.4222 18.9791C47.5089 18.9791 48.1842 18.0293 48.1842 16.3051V16.2948ZM52.5524 21.6323H55.5911C55.7357 21.9467 55.9802 22.207 56.2882 22.3744C56.5962 22.5418 56.9512 22.6074 57.3004 22.5615C58.5032 22.5615 59.1363 21.9214 59.1363 20.9923V19.2578H59.073C58.8208 19.7894 58.4116 20.2348 57.8981 20.5366C57.3847 20.8384 56.7906 20.9827 56.1925 20.951C53.8818 20.951 52.3519 19.2268 52.3519 16.2638C52.3519 13.3009 53.808 11.4322 56.2347 11.4322C56.8515 11.4085 57.461 11.5699 57.9815 11.8946C58.502 12.2194 58.9086 12.692 59.1468 13.2492V11.5251H62.3122V20.92C62.3122 23.1809 60.2758 24.585 57.2687 24.585C54.4727 24.585 52.7317 23.3565 52.5524 21.6427V21.6323ZM59.1468 16.2845C59.1468 14.7772 58.4399 13.8274 57.3215 13.8274C56.2031 13.8274 55.5172 14.7669 55.5172 16.2845C55.5172 17.8021 56.1925 18.659 57.3215 18.659C58.4505 18.659 59.1468 17.8228 59.1468 16.2948V16.2845ZM63.5045 16.2845C63.5045 13.1873 65.4459 11.3393 68.4424 11.3393C71.4389 11.3393 73.3909 13.1873 73.3909 16.2845C73.3909 19.3817 71.4917 21.24 68.4424 21.24C65.3931 21.24 63.5045 19.4436 63.5045 16.2948V16.2845ZM70.2044 16.2845C70.2044 14.581 69.5186 13.5796 68.4424 13.5796C67.3662 13.5796 66.7437 14.6223 66.7437 16.3051C66.7437 17.988 67.4084 18.9894 68.4846 18.9894C69.5608 18.9894 70.2044 18.0293 70.2044 16.3051V16.2845ZM74.5937 9.27448C74.5854 8.96177 74.6722 8.65369 74.843 8.3893C75.0139 8.12491 75.2612 7.91611 75.5534 7.78937C75.8457 7.66263 76.1699 7.62366 76.4848 7.67741C76.7998 7.73115 77.0913 7.87517 77.3225 8.09123C77.5537 8.30729 77.7141 8.58566 77.7834 8.89103C77.8527 9.1964 77.8278 9.51504 77.7118 9.80654C77.5958 10.098 77.394 10.3493 77.1319 10.5284C76.8698 10.7076 76.5593 10.8065 76.2397 10.8128C76.0278 10.827 75.8152 10.7982 75.6152 10.7282C75.4152 10.6582 75.2322 10.5485 75.0777 10.406C74.9231 10.2635 74.8003 10.0912 74.717 9.90005C74.6337 9.70888 74.5918 9.50293 74.5937 9.29513V9.27448ZM74.5937 11.5458H77.759V21.0232H74.5937V11.5458ZM89.2492 16.2845C89.2492 19.3817 87.8459 21.1471 85.4403 21.1471C84.8234 21.1859 84.2093 21.0383 83.6809 20.7244C83.1525 20.4105 82.7354 19.9454 82.486 19.392H82.4226V24.0585H79.2573V11.5251H82.4226V13.2183H82.486C82.7238 12.6557 83.133 12.1785 83.6578 11.8516C84.1826 11.5246 84.7976 11.3638 85.4192 11.3909C87.8459 11.4322 89.2914 13.2079 89.2914 16.3051L89.2492 16.2845ZM86.0839 16.2845C86.0839 14.7772 85.377 13.8171 84.2691 13.8171C83.1612 13.8171 82.4543 14.7875 82.4437 16.2845C82.4332 17.7815 83.1612 18.7416 84.2691 18.7416C85.377 18.7416 86.0839 17.8021 86.0839 16.3051V16.2845ZM94.6831 11.329C97.3103 11.329 98.9035 12.5472 98.9774 14.4984H96.0969C96.0969 13.8274 95.5272 13.4041 94.6514 13.4041C93.7757 13.4041 93.3853 13.7345 93.3853 14.2197C93.3853 14.7049 93.7335 14.8598 94.4404 15.0043L96.4662 15.407C98.3971 15.8096 99.2201 16.5736 99.2201 18.0086C99.2201 19.9702 97.3947 21.2297 94.7042 21.2297C92.0136 21.2297 90.2516 19.9702 90.1144 18.0396H93.1637C93.2587 18.7416 93.8284 19.1546 94.7569 19.1546C95.6854 19.1546 96.1075 18.8552 96.1075 18.3596C96.1075 17.8641 95.812 17.7608 95.0524 17.606L93.227 17.224C91.3384 16.842 90.3466 15.8612 90.3466 14.4158C90.3677 12.5575 92.0664 11.3496 94.6831 11.3496V11.329ZM109.782 21.0026H106.732V19.2372H106.669C106.502 19.8299 106.132 20.3487 105.621 20.7074C105.111 21.0661 104.49 21.2431 103.863 21.2091C103.382 21.2358 102.9 21.1612 102.452 20.9904C102.003 20.8196 101.596 20.5564 101.26 20.2188C100.924 19.8811 100.666 19.4768 100.503 19.0332C100.341 18.5896 100.277 18.117 100.317 17.6473V11.5251H103.483V16.9349C103.483 18.0602 104.074 18.659 105.055 18.659C105.285 18.6595 105.512 18.6118 105.722 18.5192C105.932 18.4266 106.119 18.2912 106.271 18.122C106.423 17.9529 106.536 17.754 106.603 17.5385C106.67 17.3231 106.689 17.0962 106.659 16.873V11.5251H109.824L109.782 21.0026ZM111.312 11.5251H114.371V13.3525H114.435C114.603 12.7676 114.964 12.2537 115.462 11.8913C115.961 11.5289 116.568 11.3384 117.189 11.3496C117.82 11.3001 118.448 11.4851 118.946 11.8677C119.445 12.2503 119.778 12.8025 119.879 13.4144H119.942C120.134 12.7959 120.53 12.2574 121.069 11.8835C121.608 11.5097 122.258 11.3219 122.918 11.3496C123.348 11.3355 123.777 11.4101 124.176 11.5686C124.575 11.7272 124.936 11.9661 125.234 12.2699C125.533 12.5737 125.763 12.9355 125.909 13.3319C126.055 13.7283 126.115 14.1504 126.083 14.5707V21.0232H122.918V15.3966C122.918 14.3642 122.443 13.8893 121.557 13.8893C121.359 13.8877 121.163 13.9275 120.983 14.0062C120.802 14.0849 120.641 14.2005 120.51 14.3453C120.379 14.4901 120.281 14.6608 120.224 14.8457C120.166 15.0306 120.149 15.2255 120.175 15.4173V21.0232H117.168V15.3553C117.168 14.4055 116.693 13.8893 115.828 13.8893C115.628 13.8894 115.43 13.9309 115.248 14.0112C115.066 14.0914 114.903 14.2086 114.77 14.3549C114.637 14.5013 114.538 14.6735 114.478 14.8601C114.419 15.0468 114.4 15.2437 114.424 15.4379V21.0232H111.259L111.312 11.5251Z" fill="#1D2130"/>
<path d="M28.2109 9.06805C27.674 7.86671 26.9633 6.74714 26.1007 5.74371C24.8255 4.21611 23.2342 2.97005 21.4315 2.08757C19.6287 1.20508 17.6554 0.706172 15.6413 0.623675C13.6273 0.541177 11.6183 0.876961 9.74645 1.60893C7.87461 2.3409 6.18242 3.45245 4.78126 4.87043C3.38009 6.28842 2.30171 7.98067 1.6171 9.83583C0.932485 11.691 0.657159 13.667 0.809245 15.6338C0.96133 17.6005 1.53738 19.5135 2.49947 21.2467C3.46157 22.98 4.78789 24.4942 6.39116 25.6897C7.4199 26.4722 8.55663 27.1083 9.76753 27.579C11.4652 28.2598 13.2822 28.6105 15.117 28.6115C18.9042 28.6033 22.5336 27.1261 25.2096 24.5038C27.8856 21.8816 29.3899 18.3281 29.3926 14.6224C29.3954 12.7109 28.993 10.8196 28.2109 9.06805ZM15.1064 3.4621C16.754 3.46193 18.3817 3.81429 19.8755 4.4945C19.5113 4.6485 19.1283 4.75607 18.736 4.81455C17.4452 4.99738 16.2494 5.58377 15.3271 6.48619C14.4048 7.3886 13.8055 8.55866 13.6187 9.8217C13.5367 10.5301 13.2074 11.189 12.6865 11.6875C12.1656 12.1859 11.4849 12.4932 10.7593 12.5576C9.4685 12.7404 8.27271 13.3268 7.35044 14.2292C6.42817 15.1316 5.82888 16.3017 5.64203 17.5647C5.57877 18.2383 5.28508 18.8712 4.80849 19.3611C3.98619 17.661 3.61679 15.785 3.73467 13.9077C3.85255 12.0303 4.45387 10.2127 5.48267 8.62386C6.51148 7.03504 7.93434 5.7267 9.61883 4.82059C11.3033 3.91448 13.1947 3.44005 15.117 3.44145L15.1064 3.4621ZM6.38061 21.8492C6.50722 21.7356 6.63384 21.6324 6.76045 21.5085C7.69914 20.618 8.30167 19.4425 8.46974 18.1738C8.53788 17.4607 8.86329 16.7946 9.38768 16.2949C9.89229 15.7809 10.5715 15.4651 11.2974 15.407C12.5883 15.2242 13.7841 14.6378 14.7063 13.7354C15.6286 12.833 16.2279 11.6629 16.4147 10.3999C16.4604 9.65395 16.7875 8.95123 17.3327 8.42796C17.8498 7.92399 18.5354 7.6197 19.2636 7.57106C20.4494 7.41142 21.5554 6.89558 22.4289 6.09473C23.4235 6.90214 24.2662 7.87345 24.919 8.96481C24.8789 9.01783 24.8329 9.0663 24.7818 9.10935C24.2782 9.62782 23.5998 9.95051 22.872 10.0179C21.5799 10.1975 20.3823 10.7829 19.4594 11.6859C18.5366 12.5889 17.9383 13.7607 17.7547 15.025C17.6804 15.7358 17.3572 16.3995 16.8399 16.9037C16.3227 17.408 15.6431 17.7217 14.9165 17.7919C13.6219 17.9733 12.4216 18.5585 11.494 19.4606C10.5664 20.3626 9.96093 21.5334 9.76753 22.799C9.71074 23.3036 9.53365 23.7881 9.25052 24.2134C8.16797 23.5845 7.19841 22.7858 6.38061 21.8492ZM15.1064 25.8343C14.0357 25.8354 12.9702 25.6895 11.9411 25.4007C12.2931 24.7585 12.522 24.0587 12.6163 23.3359C12.6903 22.6267 13.012 21.9642 13.5271 21.4602C14.0422 20.9561 14.7193 20.6414 15.444 20.569C16.7368 20.3882 17.935 19.8028 18.8593 18.9002C19.7836 17.9976 20.3845 16.8264 20.5719 15.5619C20.6458 14.8527 20.9675 14.1902 21.4827 13.6862C21.9978 13.1821 22.6748 12.8674 23.3996 12.795C24.3724 12.6712 25.2997 12.3168 26.1007 11.7626C26.5455 13.4123 26.5982 15.1398 26.2547 16.8125C25.9113 18.4852 25.1808 20.0587 24.1193 21.4123C23.0579 22.7658 21.6936 23.8635 20.1313 24.6211C18.569 25.3787 16.8501 25.776 15.1064 25.7827V25.8343Z" fill="#1D2130"/>
</g>
</svg>
