<svg width="124" height="28" viewBox="0 0 124 28" fill="none" xmlns="http://www.w3.org/2000/svg">
<g opacity="0.6">
<path d="M39.7015 22.771C39.0772 22.8092 38.4598 22.6087 37.9489 22.2019C37.7353 22.023 37.5635 21.7882 37.4484 21.5176C37.3332 21.2469 37.278 20.9487 37.2877 20.6486V9.65714C37.2826 9.61061 37.2869 9.56337 37.3004 9.51903C37.3139 9.47468 37.3362 9.4344 37.3655 9.40124C37.3949 9.36808 37.4305 9.34293 37.4698 9.32769C37.509 9.31245 37.5508 9.30752 37.592 9.31329H39.3551C39.5545 9.31329 39.649 9.43186 39.649 9.65714V19.7949C39.649 20.2455 39.8274 20.4707 40.1947 20.4707C40.3504 20.478 40.5062 20.458 40.6565 20.4115C40.8664 20.4115 40.9818 20.4826 40.9923 20.696L41.1497 22.1782C41.1573 22.2214 41.1566 22.2659 41.1476 22.3088C41.1387 22.3516 41.1217 22.3919 41.0978 22.4267C41.074 22.4615 41.0438 22.4902 41.0093 22.5107C40.9748 22.5312 40.9368 22.5432 40.8979 22.5457C40.5117 22.6898 40.1081 22.7658 39.7015 22.771Z" fill="#1D2130"/>
<path d="M49.619 21.5024C48.733 22.3294 47.6198 22.7818 46.4706 22.7818C45.3214 22.7818 44.2081 22.3294 43.3221 21.5024C42.5435 20.6143 42.1066 19.4147 42.1066 18.1646C42.1066 16.9145 42.5435 15.715 43.3221 14.8269C44.2098 14.0041 45.3224 13.5545 46.4706 13.5545C47.6187 13.5545 48.7313 14.0041 49.619 14.8269C50.3797 15.7232 50.8044 16.9169 50.8044 18.1587C50.8044 19.4005 50.3797 20.5942 49.619 21.4905V21.5024ZM44.9803 19.9372C45.3914 20.358 45.9263 20.591 46.481 20.591C47.0358 20.591 47.5707 20.358 47.9818 19.9372C48.3539 19.4539 48.5588 18.8349 48.5588 18.1943C48.5588 17.5537 48.3539 16.9346 47.9818 16.4513C47.5707 16.0305 47.0358 15.7975 46.481 15.7975C45.9263 15.7975 45.3914 16.0305 44.9803 16.4513C44.6082 16.9346 44.4033 17.5537 44.4033 18.1943C44.4033 18.8349 44.6082 19.4539 44.9803 19.9372Z" fill="#1D2130"/>
<path d="M60.5125 13.8545C60.7119 13.8545 60.8063 13.9731 60.8063 14.1984V22.6999C60.8247 23.2737 60.7296 23.8449 60.5281 24.372C60.3266 24.8991 60.0237 25.3688 59.6414 25.7471C58.7928 26.5646 57.7015 26.9883 56.5875 26.9328C55.5812 26.9728 54.5883 26.6623 53.7434 26.0436C53.3826 25.7759 53.0744 25.4272 52.8379 25.0193C52.6014 24.6113 52.4416 24.1528 52.3686 23.6721C52.3686 23.435 52.3686 23.3283 52.6519 23.3283H54.415C54.4899 23.3312 54.5624 23.3584 54.6239 23.4068C54.6853 23.4552 54.7331 23.5227 54.7614 23.601C54.8757 23.9611 55.1037 24.2609 55.4015 24.4429C55.7646 24.6545 56.1686 24.7604 56.577 24.7511C56.8234 24.7664 57.07 24.726 57.3025 24.6324C57.5349 24.5387 57.7485 24.3937 57.9308 24.2057C58.0973 24.0091 58.2268 23.7764 58.3116 23.5217C58.3964 23.2669 58.4346 22.9955 58.424 22.7236V21.9766C57.7928 22.5012 57.0245 22.7724 56.2411 22.7473C55.6929 22.7698 55.1463 22.667 54.6341 22.4449C54.1219 22.2228 53.6548 21.886 53.2606 21.4549C52.504 20.5705 52.0811 19.3886 52.0811 18.1586C52.0811 16.9286 52.504 15.7468 53.2606 14.8624C53.6567 14.435 54.1244 14.1016 54.6363 13.8816C55.1482 13.6617 55.6938 13.5598 56.2411 13.5818C57.0471 13.5578 57.8361 13.8465 58.4765 14.4V14.2102C58.4717 14.1648 58.4759 14.1187 58.4888 14.0753C58.5017 14.032 58.523 13.9924 58.5511 13.9594C58.5793 13.9265 58.6135 13.9011 58.6515 13.885C58.6894 13.8689 58.73 13.8625 58.7704 13.8664L60.5125 13.8545ZM56.4405 20.6368C56.7109 20.6462 56.9798 20.5885 57.2283 20.4676C57.4767 20.3467 57.6986 20.1656 57.8783 19.9372C58.2272 19.4281 58.4165 18.8025 58.4165 18.1586C58.4165 17.5148 58.2272 16.8892 57.8783 16.3801C57.6992 16.1547 57.4787 15.9764 57.2321 15.8576C56.9855 15.7388 56.7189 15.6824 56.451 15.6924C56.1775 15.6827 55.9054 15.7402 55.6536 15.861C55.4017 15.9818 55.1761 16.1629 54.9923 16.3919C54.6057 16.8789 54.4024 17.5169 54.4255 18.1705C54.4066 18.8177 54.6054 19.4489 54.9818 19.9372C55.166 20.1656 55.3917 20.3463 55.6435 20.467C55.8953 20.5878 56.1671 20.6457 56.4405 20.6368Z" fill="#1D2130"/>
<path d="M69.8632 21.5023C68.9756 22.325 67.863 22.7747 66.7148 22.7747C65.5667 22.7747 64.4541 22.325 63.5664 21.5023C62.805 20.604 62.38 19.4083 62.38 18.1646C62.38 16.9208 62.805 15.7251 63.5664 14.8268C64.4549 14.0062 65.5672 13.5579 66.7148 13.5579C67.8624 13.5579 68.9747 14.0062 69.8632 14.8268C70.6239 15.7231 71.0487 16.9169 71.0487 18.1586C71.0487 19.4004 70.6239 20.5942 69.8632 21.4905V21.5023ZM65.2141 19.9372C65.4153 20.1534 65.6524 20.3224 65.9118 20.4344C66.1713 20.5463 66.4477 20.599 66.7253 20.5893C67.0011 20.5974 67.2756 20.544 67.5331 20.4321C67.7907 20.3202 68.0261 20.152 68.2261 19.9372C68.5921 19.4506 68.793 18.8328 68.793 18.1942C68.793 17.5556 68.5921 16.9378 68.2261 16.4512C68.0261 16.2364 67.7907 16.0683 67.5331 15.9564C67.2756 15.8445 67.0011 15.791 66.7253 15.7991C66.4477 15.7894 66.1713 15.8421 65.9118 15.9541C65.6524 16.066 65.4153 16.235 65.2141 16.4512C64.8481 16.9378 64.6471 17.5556 64.6471 18.1942C64.6471 18.8328 64.8481 19.4506 65.2141 19.9372Z" fill="#1D2130"/>
<path d="M74.8378 11.8389C74.5604 12.1132 74.2042 12.2644 73.8355 12.2644C73.4668 12.2644 73.1107 12.1132 72.8333 11.8389C72.7075 11.7048 72.6073 11.543 72.5388 11.3636C72.4703 11.1842 72.435 10.9909 72.435 10.7955C72.435 10.6001 72.4703 10.4067 72.5388 10.2273C72.6073 10.0479 72.7075 9.88616 72.8333 9.75205C73.1136 9.48457 73.4686 9.33783 73.8355 9.33783C74.2024 9.33783 74.5575 9.48457 74.8378 9.75205C74.9636 9.88616 75.0638 10.0479 75.1323 10.2273C75.2007 10.4067 75.2361 10.6001 75.2361 10.7955C75.2361 10.9909 75.2007 11.1842 75.1323 11.3636C75.0638 11.543 74.9636 11.7048 74.8378 11.8389ZM75.0582 22.7711C74.4343 22.8056 73.8179 22.6055 73.3056 22.2019C73.0953 22.0205 72.9265 21.7848 72.8133 21.5145C72.7001 21.2443 72.6458 20.9474 72.6549 20.6486V14.1984C72.6498 14.1519 72.6541 14.1047 72.6676 14.0603C72.6811 14.016 72.7034 13.9757 72.7327 13.9425C72.7621 13.9094 72.7977 13.8842 72.837 13.869C72.8762 13.8537 72.918 13.8488 72.9592 13.8546H74.7223C74.9217 13.8546 75.0162 13.9731 75.0162 14.1984V19.7949C75.0162 20.2455 75.1946 20.4708 75.5514 20.4708C75.7106 20.4773 75.8697 20.4573 76.0237 20.4115C76.2336 20.4115 76.349 20.4827 76.3595 20.6961L76.5169 22.1782C76.5245 22.2214 76.5238 22.266 76.5148 22.3088C76.5059 22.3517 76.4889 22.3919 76.465 22.4267C76.4411 22.4616 76.4109 22.4902 76.3765 22.5107C76.342 22.5313 76.304 22.5432 76.2651 22.5458C75.8755 22.6907 75.4683 22.7667 75.0582 22.7711Z" fill="#1D2130"/>
<path d="M83.0028 13.57C83.5535 13.5454 84.1029 13.6461 84.6185 13.8661C85.1341 14.0861 85.6054 14.4209 86.0042 14.8506C86.7464 15.7505 87.159 16.9347 87.159 18.1646C87.159 19.3946 86.7464 20.5788 86.0042 21.4787C85.6073 21.9122 85.1366 22.2503 84.6207 22.4724C84.1048 22.6945 83.5544 22.7962 83.0028 22.7711C82.2169 22.7908 81.4467 22.5202 80.8094 22.0004V26.2808C80.8094 26.506 80.7044 26.6128 80.505 26.6128H78.7419C78.7017 26.6213 78.6602 26.6185 78.6211 26.6049C78.582 26.5912 78.5465 26.5669 78.5175 26.5343C78.4886 26.5016 78.4671 26.4614 78.455 26.4172C78.4429 26.373 78.4405 26.3262 78.4481 26.2808V16.558C78.4604 16.4629 78.4529 16.3659 78.4262 16.2746C78.3994 16.1834 78.3542 16.1005 78.294 16.0325C78.2338 15.9645 78.1604 15.9134 78.0797 15.8832C77.9989 15.853 77.913 15.8445 77.8289 15.8584H77.4825C77.2517 15.8584 77.1362 15.7636 77.1362 15.5739V14.1747C77.1308 14.0882 77.1518 14.0021 77.1957 13.9309C77.2396 13.8597 77.3038 13.8077 77.3776 13.7835C77.7406 13.6344 78.1248 13.562 78.511 13.57C78.8962 13.5315 79.2827 13.6238 79.6211 13.835C79.9595 14.0463 80.2344 14.3669 80.4106 14.7557C80.7486 14.3694 81.1528 14.065 81.5985 13.8611C82.0442 13.6573 82.522 13.5582 83.0028 13.57ZM81.3656 19.9373C81.5527 20.1582 81.7775 20.334 82.0264 20.4542C82.2753 20.5743 82.5432 20.6362 82.8139 20.6362C83.0845 20.6362 83.3524 20.5743 83.6013 20.4542C83.8502 20.334 84.075 20.1582 84.2621 19.9373C84.6563 19.4406 84.8634 18.7897 84.8393 18.1231C84.8668 17.456 84.6593 16.8037 84.2621 16.309C84.075 16.0881 83.8502 15.9122 83.6013 15.7921C83.3524 15.672 83.0845 15.61 82.8139 15.61C82.5432 15.61 82.2753 15.672 82.0264 15.7921C81.7775 15.9122 81.5527 16.0881 81.3656 16.309C80.9837 16.8124 80.785 17.4607 80.8094 18.1231C80.7881 18.785 80.9864 19.4321 81.3656 19.9373Z" fill="#1D2130"/>
<path d="M92.1121 22.771C91.1699 22.8148 90.2358 22.5601 89.4149 22.0359C89.0856 21.8117 88.8051 21.5067 88.5944 21.1434C88.3836 20.7801 88.248 20.3678 88.1975 19.9372C88.1975 19.7 88.271 19.5815 88.5019 19.5815H90.0446C90.118 19.5847 90.1892 19.6108 90.2503 19.6568C90.3114 19.7028 90.3601 19.767 90.3909 19.8423C90.6113 20.4826 91.1885 20.8027 92.1121 20.8027C92.4342 20.8194 92.755 20.7461 93.0461 20.5893C93.1466 20.538 93.2328 20.4569 93.2957 20.3546C93.3585 20.2523 93.3956 20.1326 93.4029 20.0083C93.4029 19.7 93.235 19.4866 92.8992 19.3443C92.5008 19.1945 92.089 19.0951 91.6713 19.0479C91.1764 18.9846 90.6857 18.8856 90.202 18.7515C89.7317 18.6312 89.304 18.3545 88.9741 17.9571C88.7799 17.6869 88.6369 17.3745 88.5541 17.0393C88.4712 16.704 88.4503 16.3531 88.4927 16.0084C88.535 15.6636 88.6396 15.3324 88.8001 15.0353C88.9606 14.7382 89.1734 14.4816 89.4254 14.2814C90.1818 13.737 91.0694 13.4718 91.9651 13.5225C92.8324 13.4894 93.6905 13.7318 94.4419 14.2221C94.7447 14.4159 95.0055 14.6835 95.2052 15.0056C95.4049 15.3276 95.5385 15.6959 95.5963 16.0836C95.5963 16.3208 95.5019 16.4393 95.313 16.4393H93.7597C93.6943 16.4437 93.6293 16.4257 93.5731 16.3876C93.5169 16.3495 93.4723 16.2932 93.4449 16.2259C93.3411 15.9451 93.1457 15.7201 92.8992 15.5975C92.621 15.4331 92.3104 15.3515 91.9966 15.3604C91.689 15.3415 91.3821 15.4108 91.1046 15.5619C91.0068 15.6046 90.9225 15.6793 90.8627 15.7765C90.8028 15.8737 90.7701 15.9889 90.7687 16.1074C90.7754 16.2695 90.828 16.4249 90.9187 16.5509C91.0093 16.6768 91.1333 16.7665 91.2725 16.8069C91.6755 16.9785 92.0945 17.0979 92.5214 17.1626C93.0122 17.2356 93.4992 17.3385 93.9801 17.4709C94.4505 17.5912 94.8781 17.8679 95.208 18.2653C95.3845 18.4843 95.5208 18.7406 95.609 19.0194C95.6973 19.2982 95.7358 19.594 95.7223 19.8897C95.7313 20.2996 95.6461 20.7051 95.4751 21.0667C95.304 21.4283 95.0529 21.7336 94.7462 21.9529C93.9621 22.5216 93.0433 22.8069 92.1121 22.771Z" fill="#1D2130"/>
<path d="M106.815 22.1782C106.821 22.2203 106.82 22.2633 106.811 22.3047C106.802 22.3461 106.785 22.3851 106.763 22.4193C106.74 22.4535 106.712 22.4824 106.68 22.5041C106.647 22.5258 106.611 22.5399 106.574 22.5457C106.191 22.6871 105.791 22.763 105.388 22.771C104.989 22.8177 104.586 22.7472 104.219 22.5665C103.851 22.3858 103.531 22.1009 103.289 21.7395C102.548 22.4595 101.589 22.829 100.613 22.771C100.16 22.7946 99.7069 22.7108 99.284 22.525C98.861 22.3392 98.4772 22.0554 98.1571 21.692C97.8392 21.3112 97.5926 20.8619 97.4322 20.3709C97.2717 19.8799 97.2005 19.3573 97.2231 18.8345V14.1984C97.2231 13.9731 97.3175 13.8545 97.5169 13.8545H99.28C99.4794 13.8545 99.5739 13.9731 99.5739 14.1984V18.4788C99.5547 19.0121 99.7161 19.5336 100.025 19.9372C100.179 20.1221 100.367 20.2675 100.575 20.3636C100.783 20.4598 101.007 20.5044 101.232 20.4945C101.462 20.5058 101.692 20.4656 101.908 20.376C102.124 20.2865 102.322 20.1494 102.491 19.9728C102.651 19.7866 102.776 19.5653 102.857 19.3226C102.938 19.0799 102.975 18.8209 102.964 18.5618V14.1984C102.964 13.9731 103.058 13.8545 103.258 13.8545H105.042C105.241 13.8545 105.335 13.9731 105.335 14.1984V19.783C105.335 20.2455 105.514 20.4708 105.86 20.4708C106.023 20.4779 106.185 20.4579 106.343 20.4115C106.383 20.3989 106.424 20.3966 106.465 20.4049C106.505 20.4131 106.544 20.4316 106.577 20.459C106.61 20.4864 106.638 20.5219 106.657 20.563C106.677 20.604 106.688 20.6495 106.689 20.696L106.815 22.1782Z" fill="#1D2130"/>
<path d="M123.491 22.1782C123.501 22.2207 123.502 22.2649 123.494 22.3078C123.486 22.3507 123.47 22.3912 123.447 22.4264C123.424 22.4615 123.395 22.4904 123.36 22.5111C123.326 22.5317 123.289 22.5436 123.25 22.5458C122.86 22.6891 122.453 22.7651 122.043 22.7711C121.419 22.8074 120.802 22.6071 120.29 22.2019C120.069 22.0284 119.889 21.7958 119.767 21.5248C119.644 21.2539 119.582 20.9529 119.587 20.6487V17.8623C119.609 17.3306 119.452 16.8092 119.146 16.4038C118.999 16.2185 118.817 16.0724 118.614 15.976C118.411 15.8797 118.191 15.8355 117.971 15.8466C117.773 15.8381 117.575 15.8806 117.393 15.971C117.211 16.0614 117.05 16.1972 116.922 16.3683C116.645 16.7656 116.503 17.2621 116.523 17.7674V22.1426C116.523 22.3679 116.428 22.4865 116.229 22.4865H114.455C114.414 22.4923 114.372 22.4873 114.333 22.4721C114.294 22.4569 114.258 22.4317 114.229 22.3985C114.199 22.3654 114.177 22.3251 114.164 22.2808C114.15 22.2364 114.146 22.1892 114.151 22.1426V17.8623C114.174 17.3364 114.029 16.8187 113.742 16.4038C113.614 16.2296 113.453 16.0893 113.272 15.993C113.091 15.8966 112.893 15.8467 112.692 15.8466C112.478 15.8368 112.265 15.8782 112.066 15.9681C111.867 16.058 111.687 16.1944 111.538 16.3683C111.238 16.7529 111.083 17.2553 111.107 17.7674V22.1426C111.113 22.1892 111.108 22.2364 111.095 22.2808C111.081 22.3251 111.059 22.3654 111.03 22.3985C111 22.4317 110.965 22.4569 110.925 22.4721C110.886 22.4873 110.844 22.4923 110.803 22.4865H109.093C108.893 22.4865 108.799 22.3679 108.799 22.1426V16.558C108.811 16.4629 108.804 16.3658 108.777 16.2746C108.75 16.1834 108.705 16.1004 108.645 16.0325C108.584 15.9645 108.511 15.9134 108.43 15.8832C108.35 15.8529 108.264 15.8445 108.179 15.8584H107.833C107.602 15.8584 107.487 15.7636 107.487 15.5739V14.1747C107.481 14.0881 107.502 14.0021 107.546 13.9309C107.59 13.8597 107.654 13.8076 107.728 13.7834C108.091 13.6343 108.475 13.562 108.862 13.57C109.232 13.5343 109.604 13.6178 109.935 13.8108C110.266 14.0038 110.541 14.2985 110.73 14.6609C111.084 14.2817 111.503 13.9892 111.962 13.8015C112.421 13.6138 112.909 13.535 113.395 13.57C113.868 13.5439 114.34 13.6441 114.772 13.8625C115.204 14.0809 115.585 14.4113 115.883 14.8269C116.23 14.4004 116.657 14.0664 117.132 13.849C117.608 13.6317 118.12 13.5364 118.632 13.57C119.09 13.5458 119.548 13.6292 119.976 13.8149C120.404 14.0006 120.793 14.2846 121.119 14.649C121.438 15.029 121.686 15.4782 121.846 15.9694C122.007 16.4607 122.077 16.9836 122.053 17.5065V19.795C122.053 20.2455 122.232 20.4708 122.568 20.4708C122.73 20.4794 122.893 20.4594 123.05 20.4115C123.267 20.4115 123.383 20.5064 123.397 20.6961L123.491 22.1782Z" fill="#1D2130"/>
<path d="M0.430283 12.3132C1.20455 8.79719 2.99774 5.67493 5.52432 3.44356C8.0509 1.21219 11.1656 0 14.3725 0C17.5794 0 20.6941 1.21219 23.2207 3.44356C25.7473 5.67493 27.5405 8.79719 28.3147 12.3132H27.0554C24.9309 12.2778 22.85 12.9952 21.1049 14.3645C21.0042 14.4468 20.899 14.5221 20.79 14.5897H20.6431C20.5341 14.5221 20.429 14.4468 20.3283 14.3645C18.5677 13.0269 16.4942 12.3125 14.3725 12.3125C12.2509 12.3125 10.1774 13.0269 8.41676 14.3645C8.31605 14.4468 8.2109 14.5221 8.10192 14.5897H7.955C7.84602 14.5221 7.74087 14.4468 7.64015 14.3645C5.89502 12.9952 3.81411 12.2778 1.68965 12.3132H0.430283ZM24.7885 19.7476C25.435 19.1787 26.2363 18.8812 27.0554 18.9057H28.745V15.0996H27.0554C25.6126 15.0799 24.2028 15.5872 23.0359 16.5462C22.3792 17.0931 21.5849 17.3882 20.769 17.3882C19.9532 17.3882 19.1588 17.0931 18.5022 16.5462C17.3057 15.6051 15.8828 15.1007 14.425 15.1007C12.9671 15.1007 11.5443 15.6051 10.3478 16.5462C9.69114 17.0931 8.89675 17.3882 8.08093 17.3882C7.26511 17.3882 6.47073 17.0931 5.81407 16.5462C4.63279 15.575 3.20277 15.067 1.74212 15.0996H0V18.9057H1.68965C2.50877 18.8812 3.31002 19.1787 3.95651 19.7476C5.15081 20.6892 6.5721 21.1941 8.02846 21.1941C9.48482 21.1941 10.9061 20.6892 12.1004 19.7476C12.7477 19.1805 13.5484 18.8831 14.3673 18.9057C15.1866 18.8792 15.9885 19.1769 16.6341 19.7476C17.8306 20.6886 19.2535 21.193 20.7113 21.193C22.1692 21.193 23.592 20.6886 24.7885 19.7476ZM24.7885 26.5535C25.435 25.9847 26.2363 25.6871 27.0554 25.7116H28.745V21.9055H27.0554C25.6126 21.8858 24.2028 22.3932 23.0359 23.3521C22.3792 23.899 21.5849 24.1941 20.769 24.1941C19.9532 24.1941 19.1588 23.899 18.5022 23.3521C17.3057 22.4111 15.8828 21.9066 14.425 21.9066C12.9671 21.9066 11.5443 22.4111 10.3478 23.3521C9.69114 23.899 8.89675 24.1941 8.08093 24.1941C7.26511 24.1941 6.47073 23.899 5.81407 23.3521C4.63279 22.3809 3.20277 21.8729 1.74212 21.9055H0V25.7116H1.68965C2.50877 25.6871 3.31002 25.9847 3.95651 26.5535C5.15081 27.4951 6.5721 28 8.02846 28C9.48482 28 10.9061 27.4951 12.1004 26.5535C12.7477 25.9864 13.5484 25.6891 14.3673 25.7116C15.1866 25.6851 15.9885 25.9829 16.6341 26.5535C17.8306 27.4945 19.2535 27.9989 20.7113 27.9989C22.1692 27.9989 23.592 27.4945 24.7885 26.5535Z" fill="#1D2130"/>
</g>
</svg>
